<?xml version="1.0" encoding="UTF-8" standalone="no"?>
<!-- Svg Vector Icons : http://www.onlinewebfonts.com/icon -->

<svg
   xmlns:osb="http://www.openswatchbook.org/uri/2009/osb"
   xmlns:dc="http://purl.org/dc/elements/1.1/"
   xmlns:cc="http://creativecommons.org/ns#"
   xmlns:rdf="http://www.w3.org/1999/02/22-rdf-syntax-ns#"
   xmlns:svg="http://www.w3.org/2000/svg"
   xmlns="http://www.w3.org/2000/svg"
   xmlns:xlink="http://www.w3.org/1999/xlink"
   xmlns:sodipodi="http://sodipodi.sourceforge.net/DTD/sodipodi-0.dtd"
   xmlns:inkscape="http://www.inkscape.org/namespaces/inkscape"
   version="1.1"
   x="0px"
   y="0px"
   viewBox="0 0 1000 1000"
   enable-background="new 0 0 1000 1000"
   xml:space="preserve"
   id="svg4234"
   inkscape:version="0.91 r13725"
   sodipodi:docname="pin_ico_w.svg"><defs
     id="defs4244"><linearGradient
       inkscape:collect="always"
       id="linearGradient6335"><stop
         style="stop-color:#ffffff;stop-opacity:1;"
         offset="0"
         id="stop6337" /><stop
         style="stop-color:#ffffff;stop-opacity:0;"
         offset="1"
         id="stop6339" /></linearGradient><linearGradient
       id="linearGradient4885"
       osb:paint="solid"><stop
         style="stop-color:#ffffff;stop-opacity:1;"
         offset="0"
         id="stop4887" /></linearGradient><linearGradient
       inkscape:collect="always"
       xlink:href="#linearGradient6335"
       id="linearGradient6341"
       x1="254.6"
       y1="500"
       x2="745.4"
       y2="500"
       gradientUnits="userSpaceOnUse" /></defs><sodipodi:namedview
     pagecolor="#ffffff"
     bordercolor="#666666"
     borderopacity="1"
     objecttolerance="10"
     gridtolerance="10"
     guidetolerance="10"
     inkscape:pageopacity="0"
     inkscape:pageshadow="2"
     inkscape:window-width="1512"
     inkscape:window-height="667"
     id="namedview4242"
     showgrid="false"
     showguides="true"
     inkscape:guide-bbox="true"
     inkscape:zoom="0.3337544"
     inkscape:cx="-279.43243"
     inkscape:cy="583.72935"
     inkscape:window-x="56"
     inkscape:window-y="0"
     inkscape:window-maximized="0"
     inkscape:current-layer="svg4234"><sodipodi:guide
       position="384.2646,600.74114"
       orientation="0,1"
       id="guide4246" /></sodipodi:namedview><metadata
     id="metadata4236"> Svg Vector Icons : http://www.onlinewebfonts.com/icon <rdf:RDF><cc:Work
     rdf:about=""><dc:format>image/svg+xml</dc:format><dc:type
       rdf:resource="http://purl.org/dc/dcmitype/StillImage" /><dc:title /></cc:Work></rdf:RDF></metadata><g
     id="g4238"
     transform="matrix(1.0177247,0.73762634,-0.49713995,0.68591857,359.55624,-286.67784)"><path
       d="m 665.7,438.80001 0,0 c -2.6,-1.1 -5.2,-2.2 -7.7,-3.70001 -15.3,-8.8 -26.7,-23.8 -30.4,-42 l -40.5,-257.5 -0.4,-12.7 c 0,-15.5 9,-22.3 21.9,-28.399994 l 0,0 c 1.5,-0.700013 3.1,-1.300008 4.6,-2.000007 C 629,85.099995 639.7,75.400002 639.7,56.800003 639.7,12.799995 625.5,10 599.9,10 l -199.8,0 c -25.6,0 -39.8,2.600002 -39.8,46.800003 0,18.599999 10.7,28.200003 26.5,35.699996 1.5,0.699999 3.1,1.1 4.6,2.000007 l 0,0 C 404.3,100.8 413.3,107.6 413.3,122.9 l -0.4,12.7 -40.5,257.4 c -3.7,18.2 -15.1,33.2 -30.4,42 -2.4,1.5 -5,2.6 -7.7,3.7 l 0,0 c -43.1,22.3 -79.2,67.4 -79.2,119.7 0,34.8 7.7,46.59999 33.2,46.59999 l 162.19738,0 L 491.1,990 l 17.5,0 37.6229,-385.00001 165.3771,0 c 25.6,0 33.3,-10.29998 33.3,-46.59999 0,-52.3 -36.1,-97.29999 -79.2,-119.59999 z"
       id="path4240"
       inkscape:connector-curvature="0"
       sodipodi:nodetypes="cccccccccsssscccccccccssccccssc"
       style="stroke:url(#linearGradient6341);stroke-opacity:1;fill:#f2f2f2;fill-opacity:1" /></g><circle
     style="fill:none;fill-rule:evenodd;stroke:#f2f2f2;stroke-width:105.7;stroke-linecap:butt;stroke-linejoin:miter;stroke-miterlimit:4;stroke-dasharray:none;stroke-opacity:1"
     id="path3363"
     cy="720.63568"
     cx="279.62448"
     r="225.82664" /></svg>